%TF.GenerationSoftware,KiCad,Pcbnew,(5.1.6)-1*%
%TF.CreationDate,2020-09-20T19:32:56+01:00*%
%TF.ProjectId,batt,62617474-2e6b-4696-9361-645f70636258,rev?*%
%TF.SameCoordinates,Original*%
%TF.FileFunction,Paste,Top*%
%TF.FilePolarity,Positive*%
%FSLAX46Y46*%
G04 Gerber Fmt 4.6, Leading zero omitted, Abs format (unit mm)*
G04 Created by KiCad (PCBNEW (5.1.6)-1) date 2020-09-20 19:32:56*
%MOMM*%
%LPD*%
G01*
G04 APERTURE LIST*
%ADD10R,1.060000X0.650000*%
%ADD11R,0.850000X0.550000*%
%ADD12R,0.650000X1.060000*%
%ADD13R,1.600000X2.100000*%
%ADD14R,1.350000X0.400000*%
%ADD15R,1.900000X1.900000*%
G04 APERTURE END LIST*
D10*
%TO.C,U2*%
X77100000Y-44700000D03*
X77100000Y-45650000D03*
X77100000Y-43750000D03*
X79300000Y-43750000D03*
X79300000Y-44700000D03*
X79300000Y-45650000D03*
%TD*%
D11*
%TO.C,D1*%
X73175000Y-43575000D03*
X73175000Y-44625000D03*
X71425000Y-43575000D03*
X71425000Y-44625000D03*
%TD*%
%TO.C,U3*%
G36*
G01*
X69342500Y-52015000D02*
X70107500Y-52015000D01*
G75*
G02*
X70350000Y-52257500I0J-242500D01*
G01*
X70350000Y-52742500D01*
G75*
G02*
X70107500Y-52985000I-242500J0D01*
G01*
X69342500Y-52985000D01*
G75*
G02*
X69100000Y-52742500I0J242500D01*
G01*
X69100000Y-52257500D01*
G75*
G02*
X69342500Y-52015000I242500J0D01*
G01*
G37*
G36*
G01*
X70892500Y-52015000D02*
X71657500Y-52015000D01*
G75*
G02*
X71900000Y-52257500I0J-242500D01*
G01*
X71900000Y-52742500D01*
G75*
G02*
X71657500Y-52985000I-242500J0D01*
G01*
X70892500Y-52985000D01*
G75*
G02*
X70650000Y-52742500I0J242500D01*
G01*
X70650000Y-52257500D01*
G75*
G02*
X70892500Y-52015000I242500J0D01*
G01*
G37*
G36*
G01*
X69342500Y-50815000D02*
X70107500Y-50815000D01*
G75*
G02*
X70350000Y-51057500I0J-242500D01*
G01*
X70350000Y-51542500D01*
G75*
G02*
X70107500Y-51785000I-242500J0D01*
G01*
X69342500Y-51785000D01*
G75*
G02*
X69100000Y-51542500I0J242500D01*
G01*
X69100000Y-51057500D01*
G75*
G02*
X69342500Y-50815000I242500J0D01*
G01*
G37*
G36*
G01*
X70892500Y-50815000D02*
X71657500Y-50815000D01*
G75*
G02*
X71900000Y-51057500I0J-242500D01*
G01*
X71900000Y-51542500D01*
G75*
G02*
X71657500Y-51785000I-242500J0D01*
G01*
X70892500Y-51785000D01*
G75*
G02*
X70650000Y-51542500I0J242500D01*
G01*
X70650000Y-51057500D01*
G75*
G02*
X70892500Y-50815000I242500J0D01*
G01*
G37*
G36*
G01*
X72255000Y-53750000D02*
X72555000Y-53750000D01*
G75*
G02*
X72705000Y-53900000I0J-150000D01*
G01*
X72705000Y-55200000D01*
G75*
G02*
X72555000Y-55350000I-150000J0D01*
G01*
X72255000Y-55350000D01*
G75*
G02*
X72105000Y-55200000I0J150000D01*
G01*
X72105000Y-53900000D01*
G75*
G02*
X72255000Y-53750000I150000J0D01*
G01*
G37*
G36*
G01*
X70985000Y-53750000D02*
X71285000Y-53750000D01*
G75*
G02*
X71435000Y-53900000I0J-150000D01*
G01*
X71435000Y-55200000D01*
G75*
G02*
X71285000Y-55350000I-150000J0D01*
G01*
X70985000Y-55350000D01*
G75*
G02*
X70835000Y-55200000I0J150000D01*
G01*
X70835000Y-53900000D01*
G75*
G02*
X70985000Y-53750000I150000J0D01*
G01*
G37*
G36*
G01*
X69715000Y-53750000D02*
X70015000Y-53750000D01*
G75*
G02*
X70165000Y-53900000I0J-150000D01*
G01*
X70165000Y-55200000D01*
G75*
G02*
X70015000Y-55350000I-150000J0D01*
G01*
X69715000Y-55350000D01*
G75*
G02*
X69565000Y-55200000I0J150000D01*
G01*
X69565000Y-53900000D01*
G75*
G02*
X69715000Y-53750000I150000J0D01*
G01*
G37*
G36*
G01*
X68445000Y-53750000D02*
X68745000Y-53750000D01*
G75*
G02*
X68895000Y-53900000I0J-150000D01*
G01*
X68895000Y-55200000D01*
G75*
G02*
X68745000Y-55350000I-150000J0D01*
G01*
X68445000Y-55350000D01*
G75*
G02*
X68295000Y-55200000I0J150000D01*
G01*
X68295000Y-53900000D01*
G75*
G02*
X68445000Y-53750000I150000J0D01*
G01*
G37*
G36*
G01*
X68445000Y-48450000D02*
X68745000Y-48450000D01*
G75*
G02*
X68895000Y-48600000I0J-150000D01*
G01*
X68895000Y-49900000D01*
G75*
G02*
X68745000Y-50050000I-150000J0D01*
G01*
X68445000Y-50050000D01*
G75*
G02*
X68295000Y-49900000I0J150000D01*
G01*
X68295000Y-48600000D01*
G75*
G02*
X68445000Y-48450000I150000J0D01*
G01*
G37*
G36*
G01*
X69715000Y-48450000D02*
X70015000Y-48450000D01*
G75*
G02*
X70165000Y-48600000I0J-150000D01*
G01*
X70165000Y-49900000D01*
G75*
G02*
X70015000Y-50050000I-150000J0D01*
G01*
X69715000Y-50050000D01*
G75*
G02*
X69565000Y-49900000I0J150000D01*
G01*
X69565000Y-48600000D01*
G75*
G02*
X69715000Y-48450000I150000J0D01*
G01*
G37*
G36*
G01*
X70985000Y-48450000D02*
X71285000Y-48450000D01*
G75*
G02*
X71435000Y-48600000I0J-150000D01*
G01*
X71435000Y-49900000D01*
G75*
G02*
X71285000Y-50050000I-150000J0D01*
G01*
X70985000Y-50050000D01*
G75*
G02*
X70835000Y-49900000I0J150000D01*
G01*
X70835000Y-48600000D01*
G75*
G02*
X70985000Y-48450000I150000J0D01*
G01*
G37*
G36*
G01*
X72255000Y-48450000D02*
X72555000Y-48450000D01*
G75*
G02*
X72705000Y-48600000I0J-150000D01*
G01*
X72705000Y-49900000D01*
G75*
G02*
X72555000Y-50050000I-150000J0D01*
G01*
X72255000Y-50050000D01*
G75*
G02*
X72105000Y-49900000I0J150000D01*
G01*
X72105000Y-48600000D01*
G75*
G02*
X72255000Y-48450000I150000J0D01*
G01*
G37*
%TD*%
D12*
%TO.C,U1*%
X76150000Y-49600000D03*
X77100000Y-49600000D03*
X75200000Y-49600000D03*
X75200000Y-47400000D03*
X76150000Y-47400000D03*
X77100000Y-47400000D03*
%TD*%
%TO.C,R5*%
G36*
G01*
X72656250Y-46350000D02*
X72143750Y-46350000D01*
G75*
G02*
X71925000Y-46131250I0J218750D01*
G01*
X71925000Y-45693750D01*
G75*
G02*
X72143750Y-45475000I218750J0D01*
G01*
X72656250Y-45475000D01*
G75*
G02*
X72875000Y-45693750I0J-218750D01*
G01*
X72875000Y-46131250D01*
G75*
G02*
X72656250Y-46350000I-218750J0D01*
G01*
G37*
G36*
G01*
X72656250Y-47925000D02*
X72143750Y-47925000D01*
G75*
G02*
X71925000Y-47706250I0J218750D01*
G01*
X71925000Y-47268750D01*
G75*
G02*
X72143750Y-47050000I218750J0D01*
G01*
X72656250Y-47050000D01*
G75*
G02*
X72875000Y-47268750I0J-218750D01*
G01*
X72875000Y-47706250D01*
G75*
G02*
X72656250Y-47925000I-218750J0D01*
G01*
G37*
%TD*%
%TO.C,R4*%
G36*
G01*
X69650000Y-43556250D02*
X69650000Y-43043750D01*
G75*
G02*
X69868750Y-42825000I218750J0D01*
G01*
X70306250Y-42825000D01*
G75*
G02*
X70525000Y-43043750I0J-218750D01*
G01*
X70525000Y-43556250D01*
G75*
G02*
X70306250Y-43775000I-218750J0D01*
G01*
X69868750Y-43775000D01*
G75*
G02*
X69650000Y-43556250I0J218750D01*
G01*
G37*
G36*
G01*
X68075000Y-43556250D02*
X68075000Y-43043750D01*
G75*
G02*
X68293750Y-42825000I218750J0D01*
G01*
X68731250Y-42825000D01*
G75*
G02*
X68950000Y-43043750I0J-218750D01*
G01*
X68950000Y-43556250D01*
G75*
G02*
X68731250Y-43775000I-218750J0D01*
G01*
X68293750Y-43775000D01*
G75*
G02*
X68075000Y-43556250I0J218750D01*
G01*
G37*
%TD*%
%TO.C,R3*%
G36*
G01*
X69650000Y-45156250D02*
X69650000Y-44643750D01*
G75*
G02*
X69868750Y-44425000I218750J0D01*
G01*
X70306250Y-44425000D01*
G75*
G02*
X70525000Y-44643750I0J-218750D01*
G01*
X70525000Y-45156250D01*
G75*
G02*
X70306250Y-45375000I-218750J0D01*
G01*
X69868750Y-45375000D01*
G75*
G02*
X69650000Y-45156250I0J218750D01*
G01*
G37*
G36*
G01*
X68075000Y-45156250D02*
X68075000Y-44643750D01*
G75*
G02*
X68293750Y-44425000I218750J0D01*
G01*
X68731250Y-44425000D01*
G75*
G02*
X68950000Y-44643750I0J-218750D01*
G01*
X68950000Y-45156250D01*
G75*
G02*
X68731250Y-45375000I-218750J0D01*
G01*
X68293750Y-45375000D01*
G75*
G02*
X68075000Y-45156250I0J218750D01*
G01*
G37*
%TD*%
%TO.C,R2*%
G36*
G01*
X75306250Y-44600000D02*
X74793750Y-44600000D01*
G75*
G02*
X74575000Y-44381250I0J218750D01*
G01*
X74575000Y-43943750D01*
G75*
G02*
X74793750Y-43725000I218750J0D01*
G01*
X75306250Y-43725000D01*
G75*
G02*
X75525000Y-43943750I0J-218750D01*
G01*
X75525000Y-44381250D01*
G75*
G02*
X75306250Y-44600000I-218750J0D01*
G01*
G37*
G36*
G01*
X75306250Y-46175000D02*
X74793750Y-46175000D01*
G75*
G02*
X74575000Y-45956250I0J218750D01*
G01*
X74575000Y-45518750D01*
G75*
G02*
X74793750Y-45300000I218750J0D01*
G01*
X75306250Y-45300000D01*
G75*
G02*
X75525000Y-45518750I0J-218750D01*
G01*
X75525000Y-45956250D01*
G75*
G02*
X75306250Y-46175000I-218750J0D01*
G01*
G37*
%TD*%
%TO.C,R1*%
G36*
G01*
X75593750Y-54650000D02*
X76106250Y-54650000D01*
G75*
G02*
X76325000Y-54868750I0J-218750D01*
G01*
X76325000Y-55306250D01*
G75*
G02*
X76106250Y-55525000I-218750J0D01*
G01*
X75593750Y-55525000D01*
G75*
G02*
X75375000Y-55306250I0J218750D01*
G01*
X75375000Y-54868750D01*
G75*
G02*
X75593750Y-54650000I218750J0D01*
G01*
G37*
G36*
G01*
X75593750Y-53075000D02*
X76106250Y-53075000D01*
G75*
G02*
X76325000Y-53293750I0J-218750D01*
G01*
X76325000Y-53731250D01*
G75*
G02*
X76106250Y-53950000I-218750J0D01*
G01*
X75593750Y-53950000D01*
G75*
G02*
X75375000Y-53731250I0J218750D01*
G01*
X75375000Y-53293750D01*
G75*
G02*
X75593750Y-53075000I218750J0D01*
G01*
G37*
%TD*%
D13*
%TO.C,J7*%
X66050000Y-53150000D03*
X66050000Y-46850000D03*
D14*
X66175000Y-51300000D03*
X66175000Y-50650000D03*
X66175000Y-50000000D03*
X66175000Y-49350000D03*
X66175000Y-48700000D03*
D15*
X63500000Y-51200000D03*
X63500000Y-48800000D03*
%TD*%
%TO.C,C3*%
G36*
G01*
X78956250Y-55612500D02*
X78043750Y-55612500D01*
G75*
G02*
X77800000Y-55368750I0J243750D01*
G01*
X77800000Y-54881250D01*
G75*
G02*
X78043750Y-54637500I243750J0D01*
G01*
X78956250Y-54637500D01*
G75*
G02*
X79200000Y-54881250I0J-243750D01*
G01*
X79200000Y-55368750D01*
G75*
G02*
X78956250Y-55612500I-243750J0D01*
G01*
G37*
G36*
G01*
X78956250Y-57487500D02*
X78043750Y-57487500D01*
G75*
G02*
X77800000Y-57243750I0J243750D01*
G01*
X77800000Y-56756250D01*
G75*
G02*
X78043750Y-56512500I243750J0D01*
G01*
X78956250Y-56512500D01*
G75*
G02*
X79200000Y-56756250I0J-243750D01*
G01*
X79200000Y-57243750D01*
G75*
G02*
X78956250Y-57487500I-243750J0D01*
G01*
G37*
%TD*%
%TO.C,C2*%
G36*
G01*
X69650000Y-47356250D02*
X69650000Y-46443750D01*
G75*
G02*
X69893750Y-46200000I243750J0D01*
G01*
X70381250Y-46200000D01*
G75*
G02*
X70625000Y-46443750I0J-243750D01*
G01*
X70625000Y-47356250D01*
G75*
G02*
X70381250Y-47600000I-243750J0D01*
G01*
X69893750Y-47600000D01*
G75*
G02*
X69650000Y-47356250I0J243750D01*
G01*
G37*
G36*
G01*
X67775000Y-47356250D02*
X67775000Y-46443750D01*
G75*
G02*
X68018750Y-46200000I243750J0D01*
G01*
X68506250Y-46200000D01*
G75*
G02*
X68750000Y-46443750I0J-243750D01*
G01*
X68750000Y-47356250D01*
G75*
G02*
X68506250Y-47600000I-243750J0D01*
G01*
X68018750Y-47600000D01*
G75*
G02*
X67775000Y-47356250I0J243750D01*
G01*
G37*
%TD*%
%TO.C,C1*%
G36*
G01*
X77000000Y-52256250D02*
X77000000Y-51743750D01*
G75*
G02*
X77218750Y-51525000I218750J0D01*
G01*
X77656250Y-51525000D01*
G75*
G02*
X77875000Y-51743750I0J-218750D01*
G01*
X77875000Y-52256250D01*
G75*
G02*
X77656250Y-52475000I-218750J0D01*
G01*
X77218750Y-52475000D01*
G75*
G02*
X77000000Y-52256250I0J218750D01*
G01*
G37*
G36*
G01*
X75425000Y-52256250D02*
X75425000Y-51743750D01*
G75*
G02*
X75643750Y-51525000I218750J0D01*
G01*
X76081250Y-51525000D01*
G75*
G02*
X76300000Y-51743750I0J-218750D01*
G01*
X76300000Y-52256250D01*
G75*
G02*
X76081250Y-52475000I-218750J0D01*
G01*
X75643750Y-52475000D01*
G75*
G02*
X75425000Y-52256250I0J218750D01*
G01*
G37*
%TD*%
M02*
