M48
; DRILL file {KiCad (5.1.6)-1} date 09/20/20 19:32:58
; FORMAT={-:-/ absolute / inch / decimal}
; #@! TF.CreationDate,2020-09-20T19:32:58+01:00
; #@! TF.GenerationSoftware,Kicad,Pcbnew,(5.1.6)-1
FMAT,2
INCH
T1C0.0157
T2C0.0197
T3C0.0295
T4C0.0394
T5C0.0177
%
G90
G05
T1
X2.7323Y-1.8465
X2.7362Y-2.0236
X2.7362Y-2.063
X2.8115Y-1.7948
X2.815Y-2.0236
X2.815Y-2.063
X2.9547Y-1.6909
X3.0906Y-2.1378
T3
X3.1496Y-1.9291
X3.1496Y-2.0079
T4
X3.2331Y-2.2685
X2.6331Y-2.2685
X3.3331Y-2.0685
X3.2331Y-1.6685
X3.3331Y-1.8685
X2.6331Y-1.6685
T5
X2.5925Y-1.8898
X2.5925Y-2.0472
T2
G00X2.5138Y-1.8573
M15
G01X2.4862Y-1.8573
M16
G05
G00X2.5138Y-2.0797
M15
G01X2.4862Y-2.0797
M16
G05
T0
M30
