%TF.GenerationSoftware,KiCad,Pcbnew,(5.1.6)-1*%
%TF.CreationDate,2020-09-20T19:32:56+01:00*%
%TF.ProjectId,batt,62617474-2e6b-4696-9361-645f70636258,rev?*%
%TF.SameCoordinates,Original*%
%TF.FileFunction,Legend,Bot*%
%TF.FilePolarity,Positive*%
%FSLAX46Y46*%
G04 Gerber Fmt 4.6, Leading zero omitted, Abs format (unit mm)*
G04 Created by KiCad (PCBNEW (5.1.6)-1) date 2020-09-20 19:32:56*
%MOMM*%
%LPD*%
G01*
G04 APERTURE LIST*
%ADD10C,0.150000*%
G04 APERTURE END LIST*
D10*
X69002380Y-44119047D02*
X69002380Y-43642857D01*
X68002380Y-43642857D01*
X69002380Y-44452380D02*
X68335714Y-44452380D01*
X68002380Y-44452380D02*
X68050000Y-44404761D01*
X68097619Y-44452380D01*
X68050000Y-44500000D01*
X68002380Y-44452380D01*
X68097619Y-44452380D01*
X69002380Y-44928571D02*
X68002380Y-44928571D01*
X68002380Y-45309523D01*
X68050000Y-45404761D01*
X68097619Y-45452380D01*
X68192857Y-45500000D01*
X68335714Y-45500000D01*
X68430952Y-45452380D01*
X68478571Y-45404761D01*
X68526190Y-45309523D01*
X68526190Y-44928571D01*
X69002380Y-46071428D02*
X68954761Y-45976190D01*
X68907142Y-45928571D01*
X68811904Y-45880952D01*
X68526190Y-45880952D01*
X68430952Y-45928571D01*
X68383333Y-45976190D01*
X68335714Y-46071428D01*
X68335714Y-46214285D01*
X68383333Y-46309523D01*
X68430952Y-46357142D01*
X68526190Y-46404761D01*
X68811904Y-46404761D01*
X68907142Y-46357142D01*
X68954761Y-46309523D01*
X69002380Y-46214285D01*
X69002380Y-46071428D01*
X69002380Y-47595238D02*
X68002380Y-47595238D01*
X68002380Y-47976190D01*
X68050000Y-48071428D01*
X68097619Y-48119047D01*
X68192857Y-48166666D01*
X68335714Y-48166666D01*
X68430952Y-48119047D01*
X68478571Y-48071428D01*
X68526190Y-47976190D01*
X68526190Y-47595238D01*
X69002380Y-48595238D02*
X68335714Y-48595238D01*
X68526190Y-48595238D02*
X68430952Y-48642857D01*
X68383333Y-48690476D01*
X68335714Y-48785714D01*
X68335714Y-48880952D01*
X69002380Y-49357142D02*
X68954761Y-49261904D01*
X68907142Y-49214285D01*
X68811904Y-49166666D01*
X68526190Y-49166666D01*
X68430952Y-49214285D01*
X68383333Y-49261904D01*
X68335714Y-49357142D01*
X68335714Y-49500000D01*
X68383333Y-49595238D01*
X68430952Y-49642857D01*
X68526190Y-49690476D01*
X68811904Y-49690476D01*
X68907142Y-49642857D01*
X68954761Y-49595238D01*
X69002380Y-49500000D01*
X69002380Y-49357142D01*
X68335714Y-49976190D02*
X68335714Y-50357142D01*
X68002380Y-50119047D02*
X68859523Y-50119047D01*
X68954761Y-50166666D01*
X69002380Y-50261904D01*
X69002380Y-50357142D01*
X68621428Y-50690476D02*
X68621428Y-51452380D01*
X69002380Y-51071428D02*
X68240476Y-51071428D01*
X68907142Y-52500000D02*
X68954761Y-52452380D01*
X69002380Y-52309523D01*
X69002380Y-52214285D01*
X68954761Y-52071428D01*
X68859523Y-51976190D01*
X68764285Y-51928571D01*
X68573809Y-51880952D01*
X68430952Y-51880952D01*
X68240476Y-51928571D01*
X68145238Y-51976190D01*
X68050000Y-52071428D01*
X68002380Y-52214285D01*
X68002380Y-52309523D01*
X68050000Y-52452380D01*
X68097619Y-52500000D01*
X68907142Y-53500000D02*
X68954761Y-53452380D01*
X69002380Y-53309523D01*
X69002380Y-53214285D01*
X68954761Y-53071428D01*
X68859523Y-52976190D01*
X68764285Y-52928571D01*
X68573809Y-52880952D01*
X68430952Y-52880952D01*
X68240476Y-52928571D01*
X68145238Y-52976190D01*
X68050000Y-53071428D01*
X68002380Y-53214285D01*
X68002380Y-53309523D01*
X68050000Y-53452380D01*
X68097619Y-53500000D01*
X67954761Y-54642857D02*
X69240476Y-53785714D01*
X68907142Y-55547619D02*
X68954761Y-55500000D01*
X69002380Y-55357142D01*
X69002380Y-55261904D01*
X68954761Y-55119047D01*
X68859523Y-55023809D01*
X68764285Y-54976190D01*
X68573809Y-54928571D01*
X68430952Y-54928571D01*
X68240476Y-54976190D01*
X68145238Y-55023809D01*
X68050000Y-55119047D01*
X68002380Y-55261904D01*
X68002380Y-55357142D01*
X68050000Y-55500000D01*
X68097619Y-55547619D01*
X68002380Y-55833333D02*
X69002380Y-56166666D01*
X68002380Y-56500000D01*
X69652380Y-46904761D02*
X69652380Y-46428571D01*
X70128571Y-46380952D01*
X70080952Y-46428571D01*
X70033333Y-46523809D01*
X70033333Y-46761904D01*
X70080952Y-46857142D01*
X70128571Y-46904761D01*
X70223809Y-46952380D01*
X70461904Y-46952380D01*
X70557142Y-46904761D01*
X70604761Y-46857142D01*
X70652380Y-46761904D01*
X70652380Y-46523809D01*
X70604761Y-46428571D01*
X70557142Y-46380952D01*
X69652380Y-47238095D02*
X70652380Y-47571428D01*
X69652380Y-47904761D01*
X69652380Y-49476190D02*
X69652380Y-49000000D01*
X70128571Y-48952380D01*
X70080952Y-49000000D01*
X70033333Y-49095238D01*
X70033333Y-49333333D01*
X70080952Y-49428571D01*
X70128571Y-49476190D01*
X70223809Y-49523809D01*
X70461904Y-49523809D01*
X70557142Y-49476190D01*
X70604761Y-49428571D01*
X70652380Y-49333333D01*
X70652380Y-49095238D01*
X70604761Y-49000000D01*
X70557142Y-48952380D01*
X69652380Y-50142857D02*
X69652380Y-50238095D01*
X69700000Y-50333333D01*
X69747619Y-50380952D01*
X69842857Y-50428571D01*
X70033333Y-50476190D01*
X70271428Y-50476190D01*
X70461904Y-50428571D01*
X70557142Y-50380952D01*
X70604761Y-50333333D01*
X70652380Y-50238095D01*
X70652380Y-50142857D01*
X70604761Y-50047619D01*
X70557142Y-50000000D01*
X70461904Y-49952380D01*
X70271428Y-49904761D01*
X70033333Y-49904761D01*
X69842857Y-49952380D01*
X69747619Y-50000000D01*
X69700000Y-50047619D01*
X69652380Y-50142857D01*
X69652380Y-51095238D02*
X69652380Y-51190476D01*
X69700000Y-51285714D01*
X69747619Y-51333333D01*
X69842857Y-51380952D01*
X70033333Y-51428571D01*
X70271428Y-51428571D01*
X70461904Y-51380952D01*
X70557142Y-51333333D01*
X70604761Y-51285714D01*
X70652380Y-51190476D01*
X70652380Y-51095238D01*
X70604761Y-51000000D01*
X70557142Y-50952380D01*
X70461904Y-50904761D01*
X70271428Y-50857142D01*
X70033333Y-50857142D01*
X69842857Y-50904761D01*
X69747619Y-50952380D01*
X69700000Y-51000000D01*
X69652380Y-51095238D01*
X70652380Y-51857142D02*
X69985714Y-51857142D01*
X70080952Y-51857142D02*
X70033333Y-51904761D01*
X69985714Y-52000000D01*
X69985714Y-52142857D01*
X70033333Y-52238095D01*
X70128571Y-52285714D01*
X70652380Y-52285714D01*
X70128571Y-52285714D02*
X70033333Y-52333333D01*
X69985714Y-52428571D01*
X69985714Y-52571428D01*
X70033333Y-52666666D01*
X70128571Y-52714285D01*
X70652380Y-52714285D01*
X70366666Y-53142857D02*
X70366666Y-53619047D01*
X70652380Y-53047619D02*
X69652380Y-53380952D01*
X70652380Y-53714285D01*
X71302380Y-43500000D02*
X71302380Y-44071428D01*
X72302380Y-43785714D02*
X71302380Y-43785714D01*
X72302380Y-44404761D02*
X71302380Y-44404761D01*
X72302380Y-44833333D02*
X71778571Y-44833333D01*
X71683333Y-44785714D01*
X71635714Y-44690476D01*
X71635714Y-44547619D01*
X71683333Y-44452380D01*
X71730952Y-44404761D01*
X72302380Y-45452380D02*
X72254761Y-45357142D01*
X72207142Y-45309523D01*
X72111904Y-45261904D01*
X71826190Y-45261904D01*
X71730952Y-45309523D01*
X71683333Y-45357142D01*
X71635714Y-45452380D01*
X71635714Y-45595238D01*
X71683333Y-45690476D01*
X71730952Y-45738095D01*
X71826190Y-45785714D01*
X72111904Y-45785714D01*
X72207142Y-45738095D01*
X72254761Y-45690476D01*
X72302380Y-45595238D01*
X72302380Y-45452380D01*
X72302380Y-46214285D02*
X71635714Y-46214285D01*
X71730952Y-46214285D02*
X71683333Y-46261904D01*
X71635714Y-46357142D01*
X71635714Y-46500000D01*
X71683333Y-46595238D01*
X71778571Y-46642857D01*
X72302380Y-46642857D01*
X71778571Y-46642857D02*
X71683333Y-46690476D01*
X71635714Y-46785714D01*
X71635714Y-46928571D01*
X71683333Y-47023809D01*
X71778571Y-47071428D01*
X72302380Y-47071428D01*
X72302380Y-47976190D02*
X71778571Y-47976190D01*
X71683333Y-47928571D01*
X71635714Y-47833333D01*
X71635714Y-47642857D01*
X71683333Y-47547619D01*
X72254761Y-47976190D02*
X72302380Y-47880952D01*
X72302380Y-47642857D01*
X72254761Y-47547619D01*
X72159523Y-47500000D01*
X72064285Y-47500000D01*
X71969047Y-47547619D01*
X71921428Y-47642857D01*
X71921428Y-47880952D01*
X71873809Y-47976190D01*
X72254761Y-48404761D02*
X72302380Y-48500000D01*
X72302380Y-48690476D01*
X72254761Y-48785714D01*
X72159523Y-48833333D01*
X72111904Y-48833333D01*
X72016666Y-48785714D01*
X71969047Y-48690476D01*
X71969047Y-48547619D01*
X71921428Y-48452380D01*
X71826190Y-48404761D01*
X71778571Y-48404761D01*
X71683333Y-48452380D01*
X71635714Y-48547619D01*
X71635714Y-48690476D01*
X71683333Y-48785714D01*
X71778571Y-50357142D02*
X71826190Y-50500000D01*
X71873809Y-50547619D01*
X71969047Y-50595238D01*
X72111904Y-50595238D01*
X72207142Y-50547619D01*
X72254761Y-50500000D01*
X72302380Y-50404761D01*
X72302380Y-50023809D01*
X71302380Y-50023809D01*
X71302380Y-50357142D01*
X71350000Y-50452380D01*
X71397619Y-50500000D01*
X71492857Y-50547619D01*
X71588095Y-50547619D01*
X71683333Y-50500000D01*
X71730952Y-50452380D01*
X71778571Y-50357142D01*
X71778571Y-50023809D01*
X71635714Y-50928571D02*
X72302380Y-51166666D01*
X71635714Y-51404761D02*
X72302380Y-51166666D01*
X72540476Y-51071428D01*
X72588095Y-51023809D01*
X72635714Y-50928571D01*
X71635714Y-51642857D02*
X71635714Y-52023809D01*
X71302380Y-51785714D02*
X72159523Y-51785714D01*
X72254761Y-51833333D01*
X72302380Y-51928571D01*
X72302380Y-52023809D01*
X72302380Y-52357142D02*
X71302380Y-52357142D01*
X72302380Y-52785714D02*
X71778571Y-52785714D01*
X71683333Y-52738095D01*
X71635714Y-52642857D01*
X71635714Y-52500000D01*
X71683333Y-52404761D01*
X71730952Y-52357142D01*
X72254761Y-53642857D02*
X72302380Y-53547619D01*
X72302380Y-53357142D01*
X72254761Y-53261904D01*
X72159523Y-53214285D01*
X71778571Y-53214285D01*
X71683333Y-53261904D01*
X71635714Y-53357142D01*
X71635714Y-53547619D01*
X71683333Y-53642857D01*
X71778571Y-53690476D01*
X71873809Y-53690476D01*
X71969047Y-53214285D01*
X71635714Y-54023809D02*
X72302380Y-54214285D01*
X71826190Y-54404761D01*
X72302380Y-54595238D01*
X71635714Y-54785714D01*
X72302380Y-55595238D02*
X71778571Y-55595238D01*
X71683333Y-55547619D01*
X71635714Y-55452380D01*
X71635714Y-55261904D01*
X71683333Y-55166666D01*
X72254761Y-55595238D02*
X72302380Y-55500000D01*
X72302380Y-55261904D01*
X72254761Y-55166666D01*
X72159523Y-55119047D01*
X72064285Y-55119047D01*
X71969047Y-55166666D01*
X71921428Y-55261904D01*
X71921428Y-55500000D01*
X71873809Y-55595238D01*
X71635714Y-55976190D02*
X72302380Y-56214285D01*
X71635714Y-56452380D02*
X72302380Y-56214285D01*
X72540476Y-56119047D01*
X72588095Y-56071428D01*
X72635714Y-55976190D01*
X73952380Y-49023809D02*
X73476190Y-48690476D01*
X73952380Y-48452380D02*
X72952380Y-48452380D01*
X72952380Y-48833333D01*
X73000000Y-48928571D01*
X73047619Y-48976190D01*
X73142857Y-49023809D01*
X73285714Y-49023809D01*
X73380952Y-48976190D01*
X73428571Y-48928571D01*
X73476190Y-48833333D01*
X73476190Y-48452380D01*
X73904761Y-49833333D02*
X73952380Y-49738095D01*
X73952380Y-49547619D01*
X73904761Y-49452380D01*
X73809523Y-49404761D01*
X73428571Y-49404761D01*
X73333333Y-49452380D01*
X73285714Y-49547619D01*
X73285714Y-49738095D01*
X73333333Y-49833333D01*
X73428571Y-49880952D01*
X73523809Y-49880952D01*
X73619047Y-49404761D01*
X73285714Y-50214285D02*
X73952380Y-50452380D01*
X73285714Y-50690476D01*
X73952380Y-51595238D02*
X73952380Y-51023809D01*
X73952380Y-51309523D02*
X72952380Y-51309523D01*
X73095238Y-51214285D01*
X73190476Y-51119047D01*
X73238095Y-51023809D01*
X74935714Y-48095238D02*
X75745238Y-48095238D01*
X75840476Y-48047619D01*
X75888095Y-48000000D01*
X75935714Y-47904761D01*
X75935714Y-47761904D01*
X75888095Y-47666666D01*
X75554761Y-48095238D02*
X75602380Y-48000000D01*
X75602380Y-47809523D01*
X75554761Y-47714285D01*
X75507142Y-47666666D01*
X75411904Y-47619047D01*
X75126190Y-47619047D01*
X75030952Y-47666666D01*
X74983333Y-47714285D01*
X74935714Y-47809523D01*
X74935714Y-48000000D01*
X74983333Y-48095238D01*
X75602380Y-48571428D02*
X74935714Y-48571428D01*
X74602380Y-48571428D02*
X74650000Y-48523809D01*
X74697619Y-48571428D01*
X74650000Y-48619047D01*
X74602380Y-48571428D01*
X74697619Y-48571428D01*
X74935714Y-48904761D02*
X74935714Y-49285714D01*
X74602380Y-49047619D02*
X75459523Y-49047619D01*
X75554761Y-49095238D01*
X75602380Y-49190476D01*
X75602380Y-49285714D01*
X75602380Y-49619047D02*
X74602380Y-49619047D01*
X75602380Y-50047619D02*
X75078571Y-50047619D01*
X74983333Y-50000000D01*
X74935714Y-49904761D01*
X74935714Y-49761904D01*
X74983333Y-49666666D01*
X75030952Y-49619047D01*
X74935714Y-50952380D02*
X75602380Y-50952380D01*
X74935714Y-50523809D02*
X75459523Y-50523809D01*
X75554761Y-50571428D01*
X75602380Y-50666666D01*
X75602380Y-50809523D01*
X75554761Y-50904761D01*
X75507142Y-50952380D01*
X75602380Y-51428571D02*
X74602380Y-51428571D01*
X74983333Y-51428571D02*
X74935714Y-51523809D01*
X74935714Y-51714285D01*
X74983333Y-51809523D01*
X75030952Y-51857142D01*
X75126190Y-51904761D01*
X75411904Y-51904761D01*
X75507142Y-51857142D01*
X75554761Y-51809523D01*
X75602380Y-51714285D01*
X75602380Y-51523809D01*
X75554761Y-51428571D01*
X75507142Y-52333333D02*
X75554761Y-52380952D01*
X75602380Y-52333333D01*
X75554761Y-52285714D01*
X75507142Y-52333333D01*
X75602380Y-52333333D01*
X74983333Y-52333333D02*
X75030952Y-52380952D01*
X75078571Y-52333333D01*
X75030952Y-52285714D01*
X74983333Y-52333333D01*
X75078571Y-52333333D01*
X77252380Y-43047619D02*
X76252380Y-43047619D01*
X77252380Y-43476190D02*
X76728571Y-43476190D01*
X76633333Y-43428571D01*
X76585714Y-43333333D01*
X76585714Y-43190476D01*
X76633333Y-43095238D01*
X76680952Y-43047619D01*
X77252380Y-44380952D02*
X76728571Y-44380952D01*
X76633333Y-44333333D01*
X76585714Y-44238095D01*
X76585714Y-44047619D01*
X76633333Y-43952380D01*
X77204761Y-44380952D02*
X77252380Y-44285714D01*
X77252380Y-44047619D01*
X77204761Y-43952380D01*
X77109523Y-43904761D01*
X77014285Y-43904761D01*
X76919047Y-43952380D01*
X76871428Y-44047619D01*
X76871428Y-44285714D01*
X76823809Y-44380952D01*
X77252380Y-44857142D02*
X76585714Y-44857142D01*
X76776190Y-44857142D02*
X76680952Y-44904761D01*
X76633333Y-44952380D01*
X76585714Y-45047619D01*
X76585714Y-45142857D01*
X77252380Y-45476190D02*
X76252380Y-45476190D01*
X76871428Y-45571428D02*
X77252380Y-45857142D01*
X76585714Y-45857142D02*
X76966666Y-45476190D01*
X77252380Y-46428571D02*
X77204761Y-46333333D01*
X77157142Y-46285714D01*
X77061904Y-46238095D01*
X76776190Y-46238095D01*
X76680952Y-46285714D01*
X76633333Y-46333333D01*
X76585714Y-46428571D01*
X76585714Y-46571428D01*
X76633333Y-46666666D01*
X76680952Y-46714285D01*
X76776190Y-46761904D01*
X77061904Y-46761904D01*
X77157142Y-46714285D01*
X77204761Y-46666666D01*
X77252380Y-46571428D01*
X77252380Y-46428571D01*
X76585714Y-47190476D02*
X77252380Y-47190476D01*
X76680952Y-47190476D02*
X76633333Y-47238095D01*
X76585714Y-47333333D01*
X76585714Y-47476190D01*
X76633333Y-47571428D01*
X76728571Y-47619047D01*
X77252380Y-47619047D01*
X77204761Y-48476190D02*
X77252380Y-48380952D01*
X77252380Y-48190476D01*
X77204761Y-48095238D01*
X77109523Y-48047619D01*
X76728571Y-48047619D01*
X76633333Y-48095238D01*
X76585714Y-48190476D01*
X76585714Y-48380952D01*
X76633333Y-48476190D01*
X76728571Y-48523809D01*
X76823809Y-48523809D01*
X76919047Y-48047619D01*
X76585714Y-48952380D02*
X77252380Y-48952380D01*
X76680952Y-48952380D02*
X76633333Y-49000000D01*
X76585714Y-49095238D01*
X76585714Y-49238095D01*
X76633333Y-49333333D01*
X76728571Y-49380952D01*
X77252380Y-49380952D01*
X77252380Y-49857142D02*
X76252380Y-49857142D01*
X76633333Y-49857142D02*
X76585714Y-49952380D01*
X76585714Y-50142857D01*
X76633333Y-50238095D01*
X76680952Y-50285714D01*
X76776190Y-50333333D01*
X77061904Y-50333333D01*
X77157142Y-50285714D01*
X77204761Y-50238095D01*
X77252380Y-50142857D01*
X77252380Y-49952380D01*
X77204761Y-49857142D01*
X77252380Y-51190476D02*
X76728571Y-51190476D01*
X76633333Y-51142857D01*
X76585714Y-51047619D01*
X76585714Y-50857142D01*
X76633333Y-50761904D01*
X77204761Y-51190476D02*
X77252380Y-51095238D01*
X77252380Y-50857142D01*
X77204761Y-50761904D01*
X77109523Y-50714285D01*
X77014285Y-50714285D01*
X76919047Y-50761904D01*
X76871428Y-50857142D01*
X76871428Y-51095238D01*
X76823809Y-51190476D01*
X77252380Y-52095238D02*
X76252380Y-52095238D01*
X77204761Y-52095238D02*
X77252380Y-52000000D01*
X77252380Y-51809523D01*
X77204761Y-51714285D01*
X77157142Y-51666666D01*
X77061904Y-51619047D01*
X76776190Y-51619047D01*
X76680952Y-51666666D01*
X76633333Y-51714285D01*
X76585714Y-51809523D01*
X76585714Y-52000000D01*
X76633333Y-52095238D01*
X77204761Y-52952380D02*
X77252380Y-52857142D01*
X77252380Y-52666666D01*
X77204761Y-52571428D01*
X77109523Y-52523809D01*
X76728571Y-52523809D01*
X76633333Y-52571428D01*
X76585714Y-52666666D01*
X76585714Y-52857142D01*
X76633333Y-52952380D01*
X76728571Y-53000000D01*
X76823809Y-53000000D01*
X76919047Y-52523809D01*
X76204761Y-54142857D02*
X77490476Y-53285714D01*
X77252380Y-54476190D02*
X76252380Y-54476190D01*
X76633333Y-54476190D02*
X76585714Y-54571428D01*
X76585714Y-54761904D01*
X76633333Y-54857142D01*
X76680952Y-54904761D01*
X76776190Y-54952380D01*
X77061904Y-54952380D01*
X77157142Y-54904761D01*
X77204761Y-54857142D01*
X77252380Y-54761904D01*
X77252380Y-54571428D01*
X77204761Y-54476190D01*
X77252380Y-55809523D02*
X76728571Y-55809523D01*
X76633333Y-55761904D01*
X76585714Y-55666666D01*
X76585714Y-55476190D01*
X76633333Y-55380952D01*
X77204761Y-55809523D02*
X77252380Y-55714285D01*
X77252380Y-55476190D01*
X77204761Y-55380952D01*
X77109523Y-55333333D01*
X77014285Y-55333333D01*
X76919047Y-55380952D01*
X76871428Y-55476190D01*
X76871428Y-55714285D01*
X76823809Y-55809523D01*
X76585714Y-56142857D02*
X76585714Y-56523809D01*
X76252380Y-56285714D02*
X77109523Y-56285714D01*
X77204761Y-56333333D01*
X77252380Y-56428571D01*
X77252380Y-56523809D01*
X76585714Y-56714285D02*
X76585714Y-57095238D01*
X76252380Y-56857142D02*
X77109523Y-56857142D01*
X77204761Y-56904761D01*
X77252380Y-57000000D01*
X77252380Y-57095238D01*
X77997619Y-45142857D02*
X77950000Y-45190476D01*
X77902380Y-45285714D01*
X77902380Y-45523809D01*
X77950000Y-45619047D01*
X77997619Y-45666666D01*
X78092857Y-45714285D01*
X78188095Y-45714285D01*
X78330952Y-45666666D01*
X78902380Y-45095238D01*
X78902380Y-45714285D01*
X77902380Y-46333333D02*
X77902380Y-46428571D01*
X77950000Y-46523809D01*
X77997619Y-46571428D01*
X78092857Y-46619047D01*
X78283333Y-46666666D01*
X78521428Y-46666666D01*
X78711904Y-46619047D01*
X78807142Y-46571428D01*
X78854761Y-46523809D01*
X78902380Y-46428571D01*
X78902380Y-46333333D01*
X78854761Y-46238095D01*
X78807142Y-46190476D01*
X78711904Y-46142857D01*
X78521428Y-46095238D01*
X78283333Y-46095238D01*
X78092857Y-46142857D01*
X77997619Y-46190476D01*
X77950000Y-46238095D01*
X77902380Y-46333333D01*
X77997619Y-47047619D02*
X77950000Y-47095238D01*
X77902380Y-47190476D01*
X77902380Y-47428571D01*
X77950000Y-47523809D01*
X77997619Y-47571428D01*
X78092857Y-47619047D01*
X78188095Y-47619047D01*
X78330952Y-47571428D01*
X78902380Y-47000000D01*
X78902380Y-47619047D01*
X77902380Y-48238095D02*
X77902380Y-48333333D01*
X77950000Y-48428571D01*
X77997619Y-48476190D01*
X78092857Y-48523809D01*
X78283333Y-48571428D01*
X78521428Y-48571428D01*
X78711904Y-48523809D01*
X78807142Y-48476190D01*
X78854761Y-48428571D01*
X78902380Y-48333333D01*
X78902380Y-48238095D01*
X78854761Y-48142857D01*
X78807142Y-48095238D01*
X78711904Y-48047619D01*
X78521428Y-48000000D01*
X78283333Y-48000000D01*
X78092857Y-48047619D01*
X77997619Y-48095238D01*
X77950000Y-48142857D01*
X77902380Y-48238095D01*
X78521428Y-49000000D02*
X78521428Y-49761904D01*
X77902380Y-50428571D02*
X77902380Y-50523809D01*
X77950000Y-50619047D01*
X77997619Y-50666666D01*
X78092857Y-50714285D01*
X78283333Y-50761904D01*
X78521428Y-50761904D01*
X78711904Y-50714285D01*
X78807142Y-50666666D01*
X78854761Y-50619047D01*
X78902380Y-50523809D01*
X78902380Y-50428571D01*
X78854761Y-50333333D01*
X78807142Y-50285714D01*
X78711904Y-50238095D01*
X78521428Y-50190476D01*
X78283333Y-50190476D01*
X78092857Y-50238095D01*
X77997619Y-50285714D01*
X77950000Y-50333333D01*
X77902380Y-50428571D01*
X78902380Y-51238095D02*
X78902380Y-51428571D01*
X78854761Y-51523809D01*
X78807142Y-51571428D01*
X78664285Y-51666666D01*
X78473809Y-51714285D01*
X78092857Y-51714285D01*
X77997619Y-51666666D01*
X77950000Y-51619047D01*
X77902380Y-51523809D01*
X77902380Y-51333333D01*
X77950000Y-51238095D01*
X77997619Y-51190476D01*
X78092857Y-51142857D01*
X78330952Y-51142857D01*
X78426190Y-51190476D01*
X78473809Y-51238095D01*
X78521428Y-51333333D01*
X78521428Y-51523809D01*
X78473809Y-51619047D01*
X78426190Y-51666666D01*
X78330952Y-51714285D01*
X78521428Y-52142857D02*
X78521428Y-52904761D01*
X77997619Y-53333333D02*
X77950000Y-53380952D01*
X77902380Y-53476190D01*
X77902380Y-53714285D01*
X77950000Y-53809523D01*
X77997619Y-53857142D01*
X78092857Y-53904761D01*
X78188095Y-53904761D01*
X78330952Y-53857142D01*
X78902380Y-53285714D01*
X78902380Y-53904761D01*
X77902380Y-54523809D02*
X77902380Y-54619047D01*
X77950000Y-54714285D01*
X77997619Y-54761904D01*
X78092857Y-54809523D01*
X78283333Y-54857142D01*
X78521428Y-54857142D01*
X78711904Y-54809523D01*
X78807142Y-54761904D01*
X78854761Y-54714285D01*
X78902380Y-54619047D01*
X78902380Y-54523809D01*
X78854761Y-54428571D01*
X78807142Y-54380952D01*
X78711904Y-54333333D01*
X78521428Y-54285714D01*
X78283333Y-54285714D01*
X78092857Y-54333333D01*
X77997619Y-54380952D01*
X77950000Y-54428571D01*
X77902380Y-54523809D01*
M02*
