M48
; DRILL file {KiCad (5.1.9)-1} date 09/17/21 21:45:06
; FORMAT={-:-/ absolute / inch / decimal}
; #@! TF.CreationDate,2021-09-17T21:45:06+01:00
; #@! TF.GenerationSoftware,Kicad,Pcbnew,(5.1.9)-1
FMAT,2
INCH
T1C0.0118
T2C0.0295
T3C0.0394
%
G90
G05
T1
X1.1Y-1.48
X1.1375Y-1.417
X1.15Y-1.56
X1.1725Y-1.2075
X1.2025Y-1.155
X1.225Y-1.6
X1.28Y-1.42
X1.3Y-1.56
X1.3694Y-1.4794
X1.375Y-1.6
X1.385Y-1.06
X1.3875Y-1.285
X1.45Y-1.56
X1.4851Y-1.3661
T2
X0.95Y-1.26
X0.95Y-1.3387
T3
X0.9Y-1.1
X0.9Y-1.5
X1.0Y-1.0
X1.0Y-1.6
X1.2Y-1.0
X1.3Y-1.0
X1.4Y-1.0
X1.6Y-1.0
X1.6Y-1.6
X1.7Y-1.2
X1.7Y-1.3
X1.7Y-1.4
T0
M30
